<svg width="100%" viewBox="0 0 680 440" xmlns="http://www.w3.org/2000/svg" font-family="Inter, ui-sans-serif, system-ui, sans-serif">
<defs>
<marker id="arrow" viewBox="0 0 10 10" refX="8" refY="5" markerWidth="6" markerHeight="6" orient="auto-start-reverse">
<path d="M2 1L8 5L2 9" fill="none" stroke="rgb(148,163,184)" stroke-width="1.5" stroke-linecap="round" stroke-linejoin="round"/>
</marker>
</defs>

<g>
<rect x="50" y="40" width="580" height="85" rx="12" style="fill:rgb(248,250,252);stroke:rgb(226,232,240);stroke-width:1px;"/>
<rect x="74" y="64" width="3" height="37" rx="1.5" style="fill:rgb(37,99,235);stroke:none;"/>
<text x="92" y="82" style="fill:rgb(15,23,42);stroke:none;font-size:15px;font-weight:600;">Operating system</text>
<text x="92" y="104" style="fill:rgb(71,85,105);stroke:none;font-size:12.5px;font-weight:400;">Metrics, decision rights, and execution routines</text>
</g>

<line x1="325" y1="131" x2="325" y2="169" marker-end="url(#arrow)" style="stroke:rgb(148,163,184);stroke-width:1.5px;fill:none;"/>
<line x1="355" y1="169" x2="355" y2="131" marker-end="url(#arrow)" style="stroke:rgb(148,163,184);stroke-width:1.5px;fill:none;"/>

<g>
<rect x="50" y="175" width="580" height="85" rx="12" style="fill:rgb(248,250,252);stroke:rgb(226,232,240);stroke-width:1px;"/>
<rect x="74" y="199" width="3" height="37" rx="1.5" style="fill:rgb(37,99,235);stroke:none;"/>
<text x="92" y="217" style="fill:rgb(15,23,42);stroke:none;font-size:15px;font-weight:600;">Cash &amp; forecasting</text>
<text x="92" y="239" style="fill:rgb(71,85,105);stroke:none;font-size:12.5px;font-weight:400;">Driver-based forecasts and cash visibility</text>
</g>

<line x1="325" y1="266" x2="325" y2="304" marker-end="url(#arrow)" style="stroke:rgb(148,163,184);stroke-width:1.5px;fill:none;"/>
<line x1="355" y1="304" x2="355" y2="266" marker-end="url(#arrow)" style="stroke:rgb(148,163,184);stroke-width:1.5px;fill:none;"/>

<g>
<rect x="50" y="310" width="580" height="85" rx="12" style="fill:rgb(248,250,252);stroke:rgb(226,232,240);stroke-width:1px;"/>
<rect x="74" y="334" width="3" height="37" rx="1.5" style="fill:rgb(37,99,235);stroke:none;"/>
<text x="92" y="352" style="fill:rgb(15,23,42);stroke:none;font-size:15px;font-weight:600;">Leadership cadence</text>
<text x="92" y="374" style="fill:rgb(71,85,105);stroke:none;font-size:12.5px;font-weight:400;">Weekly rhythm, accountability, and decision closure</text>
</g>

<text x="340" y="420" text-anchor="middle" style="fill:rgb(71,85,105);stroke:none;font-size:12.5px;font-weight:400;">When one layer weakens, control erodes. When all three align, execution holds.</text>
</svg>
